<?xml version="1.0" encoding="UTF-8"?>
<svg xmlns="http://www.w3.org/2000/svg" viewBox="0 0 300 300" role="img" aria-labelledby="title">
  <title id="title">Cometa</title>
  <circle cx="150" cy="150" r="150"/>
  <path fill="#00ff29" d="M173.21 190.97c-22.63 0-40.97-18.34-40.97-40.97s18.34-40.97 40.97-40.97c15.81 0 29.51 8.96 36.35 22.06h33.94c-8.33-31.04-36.64-53.88-70.29-53.88H72.36l37.15 37.54h.01a72.8 72.8 0 0 0-4.56 9.89L54 150.3l51.31 25.93a72.7 72.7 0 0 0 4.75 9.95l-.04-.02-37.66 36.63h100.85c34.18 0 62.85-23.57 70.67-55.34h-33.59c-6.55 13.9-20.69 23.52-37.07 23.52Z"/>
</svg>
